<mxfile host="app.diagrams.net" modified="2023-09-27T23:05:45.780Z" agent="Mozilla/5.0 (Windows NT 10.0; Win64; x64) AppleWebKit/537.36 (KHTML, like Gecko) Chrome/117.0.0.0 Safari/537.36 Edg/117.0.2045.43" etag="UBrmiNg-VMa5nTFqYHbi" version="21.7.2" type="github">
  <diagram name="PÃ¡gina-1" id="fkx92UTMHbWri8pq6r9W">
    <mxGraphModel dx="1506" dy="1012" grid="1" gridSize="10" guides="1" tooltips="1" connect="1" arrows="1" fold="1" page="0" pageScale="1" pageWidth="827" pageHeight="1169" math="0" shadow="0">
      <root>
        <mxCell id="0" />
        <mxCell id="1" parent="0" />
        <mxCell id="6eULlXKZiqLRbN2hcga9-7" style="rounded=0;orthogonalLoop=1;jettySize=auto;html=1;jumpStyle=line;startArrow=none;startFill=0;endArrow=none;endFill=0;" edge="1" parent="1" source="6eULlXKZiqLRbN2hcga9-1" target="6eULlXKZiqLRbN2hcga9-2">
          <mxGeometry relative="1" as="geometry" />
        </mxCell>
        <mxCell id="6eULlXKZiqLRbN2hcga9-8" style="rounded=0;orthogonalLoop=1;jettySize=auto;html=1;entryX=0;entryY=0.5;entryDx=0;entryDy=0;jumpStyle=line;startArrow=none;startFill=0;endArrow=none;endFill=0;" edge="1" parent="1" source="6eULlXKZiqLRbN2hcga9-1" target="6eULlXKZiqLRbN2hcga9-4">
          <mxGeometry relative="1" as="geometry" />
        </mxCell>
        <mxCell id="6eULlXKZiqLRbN2hcga9-9" style="rounded=0;orthogonalLoop=1;jettySize=auto;html=1;jumpStyle=line;startArrow=none;startFill=0;endArrow=none;endFill=0;entryX=0;entryY=0.5;entryDx=0;entryDy=0;" edge="1" parent="1" source="6eULlXKZiqLRbN2hcga9-1" target="6eULlXKZiqLRbN2hcga9-5">
          <mxGeometry relative="1" as="geometry" />
        </mxCell>
        <mxCell id="6eULlXKZiqLRbN2hcga9-10" style="rounded=0;orthogonalLoop=1;jettySize=auto;html=1;entryX=0;entryY=0.5;entryDx=0;entryDy=0;jumpStyle=line;startArrow=none;startFill=0;endArrow=none;endFill=0;" edge="1" parent="1" source="6eULlXKZiqLRbN2hcga9-1" target="6eULlXKZiqLRbN2hcga9-6">
          <mxGeometry relative="1" as="geometry" />
        </mxCell>
        <mxCell id="6eULlXKZiqLRbN2hcga9-11" style="rounded=0;orthogonalLoop=1;jettySize=auto;html=1;entryX=0;entryY=0.5;entryDx=0;entryDy=0;endArrow=none;endFill=0;" edge="1" parent="1" source="6eULlXKZiqLRbN2hcga9-1" target="6eULlXKZiqLRbN2hcga9-3">
          <mxGeometry relative="1" as="geometry" />
        </mxCell>
        <mxCell id="6eULlXKZiqLRbN2hcga9-1" value="Actor" style="shape=umlActor;verticalLabelPosition=bottom;verticalAlign=top;html=1;" vertex="1" parent="1">
          <mxGeometry x="-40" y="130" width="30" height="60" as="geometry" />
        </mxCell>
        <mxCell id="6eULlXKZiqLRbN2hcga9-2" value="SCL" style="shape=umlFrame;whiteSpace=wrap;html=1;pointerEvents=0;" vertex="1" parent="1">
          <mxGeometry x="40" y="-40" width="760" height="450" as="geometry" />
        </mxCell>
        <mxCell id="6eULlXKZiqLRbN2hcga9-3" value="Efetuar Login" style="ellipse;whiteSpace=wrap;html=1;" vertex="1" parent="1">
          <mxGeometry x="360" y="-10" width="190" height="70" as="geometry" />
        </mxCell>
        <mxCell id="6eULlXKZiqLRbN2hcga9-4" value="Manter Usuario" style="ellipse;whiteSpace=wrap;html=1;" vertex="1" parent="1">
          <mxGeometry x="620" y="60" width="170" height="70" as="geometry" />
        </mxCell>
        <mxCell id="6eULlXKZiqLRbN2hcga9-5" value="Manter Produto" style="ellipse;whiteSpace=wrap;html=1;" vertex="1" parent="1">
          <mxGeometry x="530" y="180" width="180" height="70" as="geometry" />
        </mxCell>
        <mxCell id="6eULlXKZiqLRbN2hcga9-6" value="Manter Cliente" style="ellipse;whiteSpace=wrap;html=1;" vertex="1" parent="1">
          <mxGeometry x="450" y="290" width="190" height="70" as="geometry" />
        </mxCell>
      </root>
    </mxGraphModel>
  </diagram>
</mxfile>
